<?xml version="1.0" encoding="UTF-8" standalone="no"?>
<svg
   xmlns:dc="http://purl.org/dc/elements/1.1/"
   xmlns:cc="http://creativecommons.org/ns#"
   xmlns:rdf="http://www.w3.org/1999/02/22-rdf-syntax-ns#"
   xmlns:svg="http://www.w3.org/2000/svg"
   xmlns="http://www.w3.org/2000/svg"
   xmlns:xlink="http://www.w3.org/1999/xlink"
   xmlns:sodipodi="http://sodipodi.sourceforge.net/DTD/sodipodi-0.dtd"
   xmlns:inkscape="http://www.inkscape.org/namespaces/inkscape"
   width="144"
   height="144"
   version="1.1"
   style="clip-rule:evenodd;fill-rule:evenodd;image-rendering:optimizeQuality;shape-rendering:geometricPrecision;text-rendering:geometricPrecision"
   viewBox="0 0 1500.0508 1500.0129"
   id="svg124"
   sodipodi:docname="qwiklabs-catalog-scraper.svg"
   inkscape:export-filename="T:\qwiklabs-catalog-scraper_64x64.png"
   inkscape:export-xdpi="96"
   inkscape:export-ydpi="96"
   inkscape:version="0.92.4 (5da689c313, 2019-01-14)">
  <metadata
     id="metadata128">
    <rdf:RDF>
      <cc:Work
         rdf:about="">
        <dc:format>image/svg+xml</dc:format>
        <dc:type
           rdf:resource="http://purl.org/dc/dcmitype/StillImage" />
        <dc:title></dc:title>
      </cc:Work>
    </rdf:RDF>
  </metadata>
  <sodipodi:namedview
     pagecolor="#ffffff"
     bordercolor="#666666"
     borderopacity="1"
     objecttolerance="10"
     gridtolerance="10"
     guidetolerance="10"
     inkscape:pageopacity="0"
     inkscape:pageshadow="2"
     inkscape:window-width="1920"
     inkscape:window-height="1017"
     id="namedview126"
     showgrid="false"
     fit-margin-top="0"
     fit-margin-left="0"
     fit-margin-right="0"
     fit-margin-bottom="0"
     units="px"
     inkscape:zoom="1.6440735"
     inkscape:cx="29.227084"
     inkscape:cy="-21.16538"
     inkscape:window-x="-8"
     inkscape:window-y="-8"
     inkscape:window-maximized="1"
     inkscape:current-layer="svg124" />
  <defs
     id="defs17">
    <style
       type="text/css"
       id="style2">  .fil0 {fill:#FEFEFE} .fil3 {fill:#FFCC29} .fil2 {fill:#FBB030} .fil17 {fill:#FAA931} .fil11 {fill:#F9A032} .fil12 {fill:#F58634} .fil5 {fill:#ED3237} .fil13 {fill:#DD3438} .fil6 {fill:#A8CF45} .fil8 {fill:#A6CE45} .fil16 {fill:#47325F} .fil7 {fill:#29364C} .fil15 {fill:#FF7300} .fil14 {fill:url(#id0)} .fil10 {fill:url(#id1)} .fil9 {fill:url(#id2)} .fil4 {fill:url(#id3)} .fil1 {fill:url(#id4)}  </style>
    <linearGradient
       id="id0"
       gradientUnits="userSpaceOnUse"
       x1="1822.89"
       y1="5346.79"
       x2="1954.72"
       y2="6243.2002">
      <stop
         offset="0"
         style="stop-opacity:1; stop-color:#FFCE2E"
         id="stop4" />
      <stop
         offset="1"
         style="stop-opacity:1; stop-color:#FF8833"
         id="stop6" />
    </linearGradient>
    <linearGradient
       id="id1"
       gradientUnits="userSpaceOnUse"
       x1="1809.15"
       y1="3598.7"
       x2="1938.76"
       y2="4479.9902">
      <stop
         offset="0"
         style="stop-opacity:1; stop-color:#FFCC29"
         id="stop9" />
      <stop
         offset="1"
         style="stop-opacity:1; stop-color:#F58634"
         id="stop11" />
    </linearGradient>
    <linearGradient
       id="id2"
       gradientUnits="userSpaceOnUse"
       xlink:href="#id1"
       x1="6223.7998"
       y1="5056.52"
       x2="6388.1602"
       y2="6174.1699" />
    <linearGradient
       id="id3"
       gradientUnits="userSpaceOnUse"
       xlink:href="#id1"
       x1="6283.9199"
       y1="3516.5"
       x2="6119.04"
       y2="4489.23" />
    <linearGradient
       id="id4"
       gradientUnits="userSpaceOnUse"
       xlink:href="#id1"
       x1="4011.3701"
       y1="5129.7202"
       x2="4171.8999"
       y2="6221.2998" />
    <style
       id="style4797"
       type="text/css">  .fil0 {fill:#F0F0F0} .fil1 {fill:#011627;fill-rule:nonzero}  </style>
  </defs>
  <g
     inkscape:export-ydpi="96"
     inkscape:export-xdpi="96"
     transform="matrix(1.0764405,0,0,1.0799664,-1367.2998,-7479.0304)"
     id="g3951">
    <path
       style="fill:#f4cc0f;fill-opacity:1"
       inkscape:connector-curvature="0"
       id="path48"
       d="m 1798,7186 c 15,-6 32,-11 48,-14 19,-5 45,-5 65,-5 7,-1 14,-1 21,-1 2,0 4,0 6,0 h 2 c 246,3 443,206 443,452 0,250 -202,452 -451,452 -250,0 -452,-202 -452,-452 0,-102 34,-201 97,-281 l 2,-1 -1,-2 c -2,-8 -4,-16 -4,-24 0,-41 34,-75 75,-75 42,0 76,34 76,75 0,42 -34,76 -76,76 -2,0 -5,-1 -8,-1 h -2 l -2,1 c -52,67 -80,148 -80,232 0,207 168,374 375,374 206,0 374,-167 374,-374 0,-207 -168,-374 -374,-374 -16,0 -32,0 -48,2 l -1,1 c -4,0 -8,1 -12,1 -16,3 -31,7 -47,11 -4,2 -9,2 -14,2 -21,0 -38,-17 -38,-38 0,-14 7,-27 20,-34 2,-1 4,-2 6,-3 z"
       class="fil6" />
    <path
       style="fill:#f4cc0f;fill-opacity:1"
       inkscape:connector-curvature="0"
       id="path50"
       d="m 2500,7327 c 1,2 2,4 3,6 v 0 0 c 3,11 0,22 -9,30 -12,12 -32,12 -44,0 -2,-3 -5,-6 -6,-10 l -1,-1 c -8,-14 -24,-42 -38,-63 -3,-5 -7,-10 -11,-15 v -1 h -1 v 0 c -14,-20 -30,-38 -47,-56 -219,-226 -580,-233 -807,-14 -226,219 -233,581 -14,807 219,227 581,233 807,14 93,-89 152,-206 169,-333 l 2,-17 -13,-10 c -2,-2 -5,-5 -7,-7 -33,-34 -32,-87 2,-120 34,-32 87,-31 120,2 32,34 31,87 -2,120 -7,6 -14,11 -22,15 l -15,7 -2,17 c -19,142 -85,272 -188,372 -252,243 -653,236 -896,-16 -243,-252 -236,-653 15,-896 249,-241 644,-236 888,7 v 0 l 2,2 c 2,2 4,4 7,6 6,7 13,15 20,22 20,23 47,52 58,70 14,24 26,50 30,62 z"
       class="fil6" />
  </g>
  <g
     id="g4864">
    <path
       style="clip-rule:evenodd;fill:#011627;fill-rule:nonzero;stroke-width:104.17019653;stroke-miterlimit:4;stroke-dasharray:none;image-rendering:optimizeQuality;shape-rendering:geometricPrecision;text-rendering:geometricPrecision"
       inkscape:connector-curvature="0"
       class="fil1"
       d="m 698.53669,429.31001 c 0,-11.62416 9.25185,-20.87601 20.87601,-20.87601 11.62416,0 20.87601,9.25185 20.87601,20.87601 v 634.34689 c 0,11.6242 -9.25185,20.876 -20.87601,20.876 -5.93072,0 -11.14972,-2.3722 -14.94535,-6.1679 L 508.28003,881.94049 c -8.30297,-8.06576 -8.30297,-21.35051 0,-29.41627 8.06576,-8.30297 21.35051,-8.30297 29.41627,0 l 160.84039,160.60318 z"
       id="path4804" />
    <path
       sodipodi:nodetypes="ssscccccsss"
       style="clip-rule:evenodd;fill:#011627;fill-rule:nonzero;stroke-width:104.17019653;stroke-miterlimit:4;stroke-dasharray:none;image-rendering:optimizeQuality;shape-rendering:geometricPrecision;text-rendering:geometricPrecision"
       inkscape:connector-curvature="0"
       class="fil1"
       d="m 698.53669,429.31001 c 0,-11.62416 9.25185,-20.87601 20.87601,-20.87601 11.62416,0 20.87601,9.25185 20.87601,20.87601 V 1013.1274 L 901.1291,852.52422 c 8.06576,-8.30297 21.35051,-8.30297 29.41627,0 8.30297,8.06576 8.30297,21.35051 0,29.41627 L 734.35805,1078.365 c -3.79563,3.7957 -9.01463,6.1679 -14.94535,6.1679 -11.62416,0 -20.87601,-9.2518 -20.87601,-20.876 z"
       id="path4806" />
  </g>
</svg>
